<svg width="40" height="40" viewBox="0 0 40 40" fill="none" xmlns="http://www.w3.org/2000/svg">
<g clip-path="url(#clip0_1757_2812)">
<path d="M22.6632 9.38773V4.28488C22.6632 3.52712 22.3622 2.80039 21.8264 2.26457C21.2906 1.72875 20.5638 1.42773 19.8061 1.42773H4.29464C3.53688 1.42773 2.81016 1.72875 2.27434 2.26457C1.73852 2.80039 1.4375 3.52712 1.4375 4.28488V19.7963C1.4375 20.5541 1.73852 21.2808 2.27434 21.8166C2.81016 22.3524 3.53688 22.6534 4.29464 22.6534H9.3975M20.2118 17.3449H35.7232C35.7232 17.3449 38.5804 17.3449 38.5804 20.202V35.7134C38.5804 35.7134 38.5804 38.5706 35.7232 38.5706H20.2118C20.2118 38.5706 17.3546 38.5706 17.3546 35.7134V20.202C17.3546 20.202 17.3546 17.3449 20.2118 17.3449Z" stroke="black" stroke-width="2.5" stroke-linecap="round" stroke-linejoin="round"/>
<path d="M9.21429 10.0126C9.02485 10.0126 8.84316 9.9373 8.70921 9.80335C8.57526 9.66939 8.5 9.48771 8.5 9.29827C8.5 9.10883 8.57526 8.92715 8.70921 8.79319C8.84316 8.65924 9.02485 8.58398 9.21429 8.58398M24.7371 31.9011C24.5477 31.9011 24.366 31.8259 24.2321 31.6919C24.0981 31.558 24.0229 31.3763 24.0229 31.1868C24.0229 30.9974 24.0981 30.8157 24.2321 30.6818C24.366 30.5478 24.5477 30.4726 24.7371 30.4726C24.9266 30.4726 25.1083 30.5478 25.2422 30.6818C25.3762 30.8157 25.4514 30.9974 25.4514 31.1868C25.4514 31.3763 25.3762 31.558 25.2422 31.6919C25.1083 31.8259 24.9266 31.9011 24.7371 31.9011Z" stroke="black" stroke-width="2.5" stroke-linecap="round" stroke-linejoin="round"/>
<path d="M9.21875 10.0126C9.40819 10.0126 9.58987 9.9373 9.72383 9.80335C9.85778 9.66939 9.93304 9.48771 9.93304 9.29827C9.93304 9.10883 9.85778 8.92715 9.72383 8.79319C9.58987 8.65924 9.40819 8.58398 9.21875 8.58398M31.2159 26.0126C31.0265 26.0126 30.8448 25.9373 30.7108 25.8033C30.5769 25.6694 30.5016 25.4877 30.5016 25.2983C30.5016 25.1088 30.5769 24.9271 30.7108 24.7932C30.8448 24.6592 31.0265 24.584 31.2159 24.584" stroke="black" stroke-width="2.5" stroke-linecap="round" stroke-linejoin="round"/>
<path d="M31.2031 26.0126C31.3926 26.0126 31.5742 25.9373 31.7082 25.8033C31.8422 25.6694 31.9174 25.4877 31.9174 25.2983C31.9174 25.1088 31.8422 24.9272 31.7082 24.7932C31.5742 24.6592 31.3926 24.584 31.2031 24.584" stroke="black" stroke-width="2.5" stroke-linecap="round" stroke-linejoin="round"/>
</g>
<defs>
<clipPath id="clip0_1757_2812">
<rect width="40" height="40" fill="white"/>
</clipPath>
</defs>
</svg>
