<svg width="140" height="22" viewBox="0 0 140 22" fill="none" xmlns="http://www.w3.org/2000/svg">
<path d="M3.87506 6.14433L5.19566 3.17332L6.44244 6.14433H3.87506ZM10.3971 9.29402C10.071 9.29402 9.73556 9.11534 9.54516 8.74009L6.04748 0.394531H5.25759L1.76698 8.74009C1.57193 9.11534 1.24112 9.29402 0.910415 9.29402H0.320312V9.97978H4.00607V9.29402H3.28506C2.95193 9.29402 2.69021 8.99019 2.82112 8.74009L3.55152 7.00887H6.77567L7.56556 8.74009C7.63223 8.99019 7.43233 9.29402 7.04203 9.29402H6.31163V9.97978H10.9871V9.29402H10.3971Z" fill="#231F20"/>
<path d="M20.7632 9.9799V9.29415H21.4889C21.8149 9.29415 22.0791 8.99041 22.0791 8.7402V2.86303L18.6575 9.9799H17.7296L14.3032 2.86303V8.7402C14.3032 8.99041 14.5697 9.29415 14.8981 9.29415H15.6237V9.9799H12V9.29415H12.7281C13.054 9.29415 13.3182 8.99041 13.3182 8.7402V1.81313C13.3182 1.50263 13.054 1.25919 12.7281 1.25919H12V0.517578H15.2288L18.5885 7.62768L22.0148 0.517578H25.3079V1.25919H24.5798C24.2537 1.25919 23.9897 1.50263 23.9897 1.81313V8.7402C23.9897 8.99041 24.2537 9.29415 24.5798 9.29415H25.3079V9.9799H20.7632Z" fill="#231F20"/>
<path d="M26.5625 9.9799V9.29415H27.2858C27.6119 9.29415 27.8759 8.99041 27.8759 8.7402V1.81313C27.8759 1.50263 27.6119 1.25919 27.2858 1.25919H26.5625V0.517578H35.0617V3.66717H34.2718V3.36121C34.2718 2.24434 33.3461 1.3798 32.1564 1.3798H29.8556V4.78404H30.8454C31.5069 4.78404 32.0327 4.28586 32.0327 3.66717V3.30091H32.818V7.06919H32.0327V6.69849C32.0327 6.08414 31.5069 5.58606 30.8454 5.58606H29.8556V9.17354H32.423C33.6127 9.17354 34.5358 8.24425 34.5358 7.19212V6.51525H35.3258V9.9799H26.5625Z" fill="#231F20"/>
<path d="M40.0644 4.72152V1.3798H41.9108C42.8958 1.3798 43.5503 2.12142 43.5503 3.05071C43.554 3.9799 42.9006 4.72152 41.9108 4.72152H40.0644ZM46.1865 9.29415C45.7963 9.29415 45.4656 9.05071 45.2015 8.7402L43.0957 5.58606C44.54 5.52566 45.5251 4.40879 45.5251 3.05071C45.5251 1.63 44.4067 0.517578 42.9601 0.517578H36.7666V1.25919H37.4851C37.8896 1.25919 38.08 1.50263 38.08 1.81313L38.0838 8.7402C38.0838 8.99041 37.8887 9.29415 37.489 9.29415H36.7656V9.9799H41.3745V9.29415H40.6535C40.3205 9.29415 40.0635 8.99041 40.0635 8.7402V5.58606H40.9152L43.8157 9.9799H46.6496V9.29415H46.1865Z" fill="#231F20"/>
<path d="M47.7734 9.9799V9.29415H48.4967C48.8227 9.29415 49.0868 8.99041 49.0868 8.7402V1.81313C49.0868 1.50263 48.8227 1.25919 48.4919 1.25919H47.7734V0.517578H52.3822V1.25919H51.6589C51.3282 1.25919 51.0665 1.50263 51.0665 1.81313V8.7402C51.0665 8.99041 51.3282 9.29415 51.6589 9.29415H52.3822V9.9799H47.7734Z" fill="#231F20"/>
<path d="M58.4441 10.1629C55.22 10.1629 53.3047 8.1213 53.3047 5.27544C53.3047 2.3715 55.22 0.394531 58.4393 0.394531C60.7497 0.394531 62.1346 1.00887 62.1346 1.00887V3.66706H61.3398C61.0829 2.24413 60.2239 1.19211 58.4393 1.19211C56.3336 1.19211 55.4152 3.11312 55.4152 5.27544C55.4152 7.37968 56.4692 9.29413 58.4441 9.29413C60.2239 9.29413 61.0829 8.36928 61.3398 6.63807H62.1346V9.4817C62.1346 9.4817 60.8806 10.1629 58.4441 10.1629Z" fill="#231F20"/>
<path d="M66.4831 6.14443L67.7323 3.17342L69.0532 6.14443H66.4831ZM72.9381 9.29413C72.6078 9.29413 72.2795 9.11534 72.0845 8.74009L68.5937 0.394531H67.8632L64.3036 8.74009C64.1727 9.11534 63.7778 9.29413 63.4542 9.29413H62.8594V9.97978H66.5474V9.29413H65.824C65.4933 9.29413 65.2934 8.99029 65.3577 8.74009L66.0882 7.00887H69.3835L70.1017 8.74009C70.233 8.99029 69.9734 9.29413 69.6431 9.29413H68.9173V9.97978H73.5926V9.29413H72.9381Z" fill="#231F20"/>
<path d="M84.88 1.25919C84.5466 1.25919 84.285 1.50263 84.285 1.81313V10.163H83.3002L76.9759 2.74243V8.7402C76.9759 8.99041 77.2396 9.29414 77.5709 9.29414H78.4275V9.9799H74.4062V9.29414H75.3961C75.7264 9.29414 75.9861 8.99041 75.9861 8.7402V1.81313C75.9861 1.50263 75.7264 1.25919 75.3961 1.25919H74.4062V0.517578H77.5658L83.3002 7.19212V1.81313C83.3002 1.50263 83.0355 1.25919 82.7052 1.25919H81.7204V0.517578H85.7366V1.25919H84.88Z" fill="#231F20"/>
<path d="M34.9928 20.925C33.0869 20.925 32.4968 19.4998 32.4968 17.648C32.4968 15.7895 33.0869 14.3688 34.9928 14.3688C36.901 14.3688 37.4317 15.7895 37.4317 17.648C37.4317 19.4998 36.901 20.925 34.9928 20.925ZM34.9928 13.6875C32.3564 13.6875 30.7812 15.2981 30.7812 17.648C30.7812 19.9958 32.3564 21.6063 34.9928 21.6063C37.3674 21.6063 39.2114 20.0583 39.2114 17.648C39.2114 15.231 37.3674 13.6875 34.9928 13.6875Z" fill="#231F20"/>
<path d="M47.9739 14.3689C47.7073 14.3689 47.5075 14.617 47.5075 14.8649V18.8835C47.5075 20.5498 46.0584 21.6064 44.2834 21.6064C42.5037 21.6064 41.0522 20.5498 41.0522 18.8835V14.8649C41.0522 14.617 40.8547 14.3689 40.5929 14.3689H39.8672V13.8105H43.8194V14.3689H43.0985C42.9034 14.3689 42.6345 14.617 42.6345 14.8649V18.8835C42.6345 20.0584 43.5577 20.6773 44.6737 20.6773C45.7991 20.6773 46.6532 20.0584 46.6532 18.8835V14.8649C46.6532 14.617 46.4581 14.3689 46.1893 14.3689H45.4683V13.8105H48.6281V14.3689H47.9739Z" fill="#231F20"/>
<path d="M56.2059 16.3459V16.1001C56.2059 15.1709 55.416 14.4896 54.4952 14.4896H53.8361V20.4292C53.8361 20.6772 54.0312 20.8604 54.2906 20.8604H54.8854V21.4791H51.1998V20.8604H51.7898C52.0563 20.8604 52.2561 20.6772 52.2561 20.4292V14.4896H51.5947C50.6739 14.4896 49.8887 15.1709 49.8887 16.1001V16.3459H49.2891V13.8105H56.8008V16.3459H56.2059Z" fill="#231F20"/>
<path d="M63.9212 16.3459V16.1001C63.9212 15.1709 63.1266 14.4896 62.1367 14.4896H60.2903V17.2752H61.0208C61.6109 17.2752 62.0011 16.8419 62.0011 16.3459V16.0398H62.596V19.1292H62.0011V18.8232C62.0011 18.325 61.6109 17.9543 61.0208 17.9543H60.2903V20.4292C60.2903 20.6772 60.4902 20.8604 60.7519 20.8604H61.6775V21.4791H57.6562V20.8604H58.2511C58.5152 20.8604 58.7104 20.6772 58.7104 20.4292V14.8649C58.7104 14.617 58.5152 14.3689 58.2511 14.3689H57.6562V13.8105H64.5113V16.3459H63.9212Z" fill="#231F20"/>
<path d="M65.4922 21.4791V20.8604H66.087C66.3463 20.8604 66.5462 20.6772 66.5462 20.4292V14.8649C66.5462 14.617 66.3463 14.3689 66.087 14.3689H65.4922V13.8105H69.2472V14.3689H68.652C68.3973 14.3689 68.1261 14.617 68.1261 14.8649V20.4292C68.1261 20.6772 68.3973 20.8604 68.652 20.8604H69.2472V21.4791H65.4922Z" fill="#231F20"/>
<path d="M76.9593 16.3459V16.1001C76.9593 15.1709 76.235 14.4896 75.2461 14.4896H74.5845V20.4292C74.5845 20.6772 74.8461 20.8604 75.1148 20.8604H75.7047V21.4791H71.9502V20.8604H72.5451C72.8047 20.8604 73.0047 20.6772 73.0047 20.4292V14.4896H72.3401C71.4239 14.4896 70.63 15.1709 70.63 16.1001V16.3459H70.0391V13.8105H77.6158V16.3459H76.9593Z" fill="#231F20"/>
<path d="M85.3696 16.3459V16.1001C85.3696 15.1709 84.6453 14.4896 83.6554 14.4896H82.9898V20.4292C82.9898 20.6772 83.2605 20.8604 83.4564 20.8604H84.0463V21.4791H80.3605V20.8604H80.9554C81.2191 20.8604 81.415 20.6772 81.415 20.4292V14.4896H80.7605C79.8342 14.4896 79.0403 15.1709 79.0403 16.1001V16.3459H78.4453V13.8105H86.0261V16.3459H85.3696Z" fill="#231F20"/>
<path d="M86.8125 21.4791V20.8604H87.4075C87.6671 20.8604 87.866 20.6772 87.866 20.4292V14.8649C87.866 14.617 87.6671 14.3689 87.4075 14.3689H86.8125V13.8105H93.667V16.3459H93.0771V16.1001C93.0771 15.1709 92.2822 14.4896 91.3569 14.4896H89.4468V17.2752H90.2408C90.7671 17.2752 91.2256 16.8419 91.2256 16.3459V16.0398H91.8206V19.1292H91.2256V18.8232C91.2256 18.325 90.7671 17.9543 90.2408 17.9543H89.4468V20.8H91.5519C92.4782 20.8 93.2681 20.0585 93.2681 19.194V18.6356H93.863V21.4791H86.8125Z" fill="#231F20"/>
<path d="M98.9539 17.2126H97.5045V14.4896H98.9539C99.7418 14.4896 100.339 15.1151 100.339 15.8523C100.339 16.5894 99.7418 17.2126 98.9539 17.2126ZM102.692 20.8604C102.361 20.8604 102.097 20.7374 101.902 20.4292L100.186 17.894C101.307 17.8336 102.161 16.9647 102.161 15.8523C102.161 14.7398 101.241 13.8105 100.051 13.8105H95.0469V14.3689H95.6418C95.9014 14.3689 96.1681 14.617 96.1681 14.8649V20.4292C96.1681 20.6772 95.9014 20.8604 95.6418 20.8604H95.0469V21.4791H98.8014V20.8604H98.2115C97.9479 20.8604 97.7479 20.6772 97.7479 20.4292V17.894H98.4065L100.776 21.4791H103.082V20.8604H102.692Z" fill="#231F20"/>
<path d="M106.975 21.6063C105.06 21.6063 103.939 20.9875 103.939 20.9875V18.6354H104.602C104.8 20.0583 105.523 20.925 106.975 20.925C107.83 20.925 108.483 20.4291 108.483 19.625C108.483 17.5877 103.875 18.9413 103.875 15.852C103.875 14.3063 105.195 13.6875 106.508 13.6875C108.293 13.6875 109.213 14.3063 109.213 14.3063V16.2229H108.619C108.355 15.0479 107.83 14.3688 106.508 14.3688C105.785 14.3688 105.195 14.7396 105.195 15.4143C105.195 17.3397 109.804 16.2876 109.804 19.3166C109.804 20.9875 108.483 21.6063 106.975 21.6063Z" fill="#231F20"/>
<path d="M90.4219 9.9799V9.29415H91.1451C91.4764 9.29415 91.6714 8.99041 91.6714 8.7402V1.81313C91.6714 1.50263 91.4714 1.25919 91.1451 1.25919H90.4219V0.517578H98.8522V3.66717H98.1269V3.36121C98.1269 2.24434 97.1411 1.3798 95.9522 1.3798H93.6512V4.78404H94.636C95.2956 4.78404 95.8209 4.28586 95.8209 3.66717V3.30091H96.6158V7.06919H95.8209V6.69849C95.8209 6.08414 95.2956 5.58606 94.636 5.58606H93.6512V9.17354H96.2158C97.4007 9.17354 98.3219 8.24425 98.3219 7.19212V6.51525H99.1168V9.9799H90.4219Z" fill="#231F20"/>
<path d="M103.595 6.14443L104.845 3.17342L106.165 6.14443H103.595ZM110.119 9.29413C109.72 9.29413 109.394 9.11534 109.256 8.74009L105.703 0.394531H104.98L101.425 8.74009C101.29 9.11534 100.895 9.29413 100.63 9.29413H99.9688V9.97978H103.728V9.29413H103C102.675 9.29413 102.406 8.99029 102.544 8.74009L103.265 7.00887H106.493L107.219 8.74009C107.35 8.99029 107.084 9.29413 106.76 9.29413H106.034V9.97978H110.71V9.29413H110.119Z" fill="#231F20"/>
<path d="M120.125 5.95665C119.79 5.95665 119.535 6.20463 119.535 6.51514V6.82564V9.17342V9.29413C119.535 9.29413 118.019 10.1629 115.644 10.1629C112.416 10.1629 110.445 8.1213 110.445 5.27544C110.442 2.3715 112.416 0.394531 115.644 0.394531C117.95 0.394531 119.335 1.00887 119.335 1.00887V3.66706H118.545C118.214 2.24413 117.355 1.19211 115.644 1.19211C113.539 1.19211 112.616 3.11312 112.616 5.27544C112.616 7.37968 113.606 9.29413 115.644 9.29413C116.571 9.29413 117.16 9.11534 117.619 8.67978V6.51514C117.619 6.20463 117.355 5.95665 117.029 5.95665H116.171V5.21514H120.72V5.95665H120.125Z" fill="#231F20"/>
<path d="M121.531 9.9799V9.29415H122.26C122.581 9.29415 122.849 8.99041 122.849 8.7402V1.81313C122.849 1.50263 122.581 1.25919 122.26 1.25919H121.531V0.517578H126.471V1.25919H125.35C125.022 1.25919 124.755 1.50263 124.755 1.81313V9.17354H127.125C128.25 9.17354 129.24 8.24425 129.24 7.19212V6.51525H129.962V9.9799H121.531Z" fill="#231F20"/>
<path d="M131.016 9.9799V9.29415H131.741C132.006 9.29415 132.269 8.99041 132.269 8.7402V1.81313C132.269 1.50263 132.006 1.25919 131.741 1.25919H131.016V0.517578H139.446V3.66717H138.725V3.36121C138.725 2.24434 137.735 1.3798 136.55 1.3798H134.249V4.78404H135.232C135.89 4.78404 136.422 4.28586 136.422 3.66717V3.30091H137.212V7.06919H136.422V6.69849C136.422 6.08414 135.89 5.58606 135.232 5.58606H134.249V9.17354H136.817C138.001 9.17354 138.92 8.24425 138.92 7.19212V6.51525H139.715V9.9799H131.016Z" fill="#231F20"/>
</svg>
