<svg width="106" height="44" viewBox="0 0 106 44" fill="none" xmlns="http://www.w3.org/2000/svg">
<path d="M98.15 30.705C97.8692 30.705 97.6753 30.5089 97.6753 30.227V16.2242H92.947C92.6662 16.2242 92.4723 16.029 92.4723 15.7468V13.8152C92.4723 13.5323 92.6662 13.3367 92.947 13.3367H105.533C105.814 13.3367 106.007 13.5326 106.007 13.8152V15.7467C106.007 16.0287 105.814 16.2242 105.533 16.2242H100.805V30.2268C100.805 30.5089 100.611 30.705 100.33 30.705H98.15ZM61.9308 23.7139L59.449 16.5502L56.945 23.7139H61.9308ZM67.4359 30.1391C67.544 30.422 67.3713 30.705 67.0692 30.705H64.8248C64.5005 30.705 64.3056 30.5535 64.1975 30.2481L62.9248 26.5587H55.9524L54.6771 30.2481C54.5699 30.5536 54.375 30.705 54.0518 30.705H51.937C51.6559 30.705 51.4614 30.4219 51.5693 30.1391L57.4197 13.7718C57.5278 13.4669 57.7218 13.3374 58.045 13.3374H60.9379C61.2622 13.3374 61.4773 13.467 61.5854 13.7718L67.4359 30.1391ZM84.2046 28.3598C85.5854 28.3598 86.5137 27.6879 87.2692 26.5368L83.7733 22.7588C82.4339 23.5193 81.5702 24.2781 81.5702 25.7982C81.5702 27.2965 82.7783 28.3598 84.2046 28.3598ZM85.1753 15.6378C84.0531 15.6378 83.4056 16.355 83.4056 17.31C83.4056 18.048 83.7935 18.6994 84.6793 19.6549C86.2117 18.7642 86.8591 18.2217 86.8591 17.2668C86.8591 16.376 86.2985 15.6378 85.1753 15.6378ZM94.7389 30.097C95.0197 30.4011 94.847 30.705 94.5005 30.705H91.7591C91.3925 30.705 91.1985 30.6177 90.9611 30.3352L89.3207 28.5123C88.2197 29.9887 86.6854 31.0956 84.1389 31.0956C80.9874 31.0956 78.5046 29.1853 78.5046 25.9077C78.5046 23.3886 79.843 22.0422 81.8723 20.9137C80.8793 19.7631 80.4268 18.5473 80.4268 17.4841C80.4268 14.7913 82.3046 12.9463 85.1319 12.9463C88.0248 12.9463 89.7955 14.6619 89.7955 17.2015C89.7955 19.3724 88.2409 20.5871 86.5995 21.4996L89.0177 24.1273L90.3773 21.7384C90.55 21.4566 90.745 21.3477 91.0894 21.3477H93.1834C93.5288 21.3477 93.7238 21.5871 93.5086 21.956L91.0904 26.1236L94.7389 30.097ZM73.1955 30.705C73.4763 30.705 73.6712 30.5089 73.6712 30.227V16.2242H78.3985C78.6793 16.2242 78.8733 16.029 78.8733 15.7468V13.8152C78.8733 13.5323 78.6793 13.3367 78.3985 13.3367H65.8127C65.5319 13.3367 65.3379 13.5326 65.3379 13.8152V15.7467C65.3379 16.0287 65.5319 16.2242 65.8127 16.2242H70.5399V30.2268C70.5399 30.5089 70.7349 30.705 71.0147 30.705H73.1955Z" fill="black"/>
<path d="M9.30525 39.152C12.9663 42.0031 17.5614 43.7161 22.547 43.7161C28.0027 43.7161 32.9766 41.6782 36.7725 38.3331C36.8185 38.2922 36.7958 38.2652 36.7504 38.2922C35.0471 39.4367 30.1923 41.935 22.5472 41.935C15.9032 41.935 11.7045 40.4437 9.33343 39.1122C9.28808 39.0896 9.27121 39.1239 9.30525 39.152ZM24.0127 40.262C29.3267 40.262 35.1661 38.8047 38.6585 35.9198C39.6141 35.1339 40.5245 34.0877 41.3398 32.6819C41.8092 31.8729 42.2682 30.9119 42.6421 29.9671C42.6587 29.921 42.6304 29.8986 42.596 29.9504C39.3483 34.7587 29.9436 37.7579 20.2327 37.7579C13.3688 37.7579 5.98333 35.5496 3.09181 31.3331C3.06333 31.2941 3.03484 31.3107 3.05221 31.3556C5.74585 37.1155 13.9177 40.262 24.0127 40.262ZM18.2068 30.7066C7.15484 30.7066 1.94363 25.528 0.998277 21.9941C0.986661 21.943 0.953125 21.9542 0.953125 22.0001C0.953125 23.1898 1.07151 24.7252 1.27515 25.7443C1.37232 26.2403 1.77353 27.0188 2.36191 27.6393C5.03807 30.4457 11.7102 34.3781 23.2651 34.3781C39.0084 34.3781 42.6081 29.1022 43.3431 27.3671C43.8688 26.1263 44.1411 23.8839 44.1411 22.0002C44.1411 21.5444 44.1297 21.1802 44.1126 20.8229C44.1126 20.7648 44.0792 20.76 44.0677 20.8166C43.2809 25.0621 29.8302 30.7066 18.2068 30.7066ZM3.03484 12.6839C2.40161 13.9483 1.69959 16.0814 1.4909 17.1855C1.39949 17.6585 1.43848 17.8857 1.60333 18.2387C2.92797 21.0663 9.62828 25.5903 25.2576 25.5903C34.7926 25.5903 42.1996 23.2337 43.3996 18.9331C43.6206 18.1414 43.6324 17.3055 43.3486 16.1791C43.0314 14.9205 42.4374 13.4528 41.9346 12.4222C41.9181 12.3886 41.8888 12.3936 41.8947 12.4333C42.0815 18.074 26.4461 21.7094 18.5571 21.7094C10.0118 21.7094 2.88282 18.2842 2.88282 13.9591C2.88282 13.5436 2.96828 13.1279 3.07504 12.6953C3.08575 12.6558 3.05212 12.6492 3.03484 12.6839ZM36.8075 5.75832C36.8982 5.90135 36.9434 6.05398 36.9434 6.25953C36.9434 8.67236 29.6033 12.9407 17.9188 12.9407C9.33343 12.9407 7.72606 9.7366 7.72606 7.69883C7.72606 6.97044 8.00373 6.22509 8.61525 5.46812C8.64868 5.42317 8.6203 5.4058 8.58181 5.43933C7.46646 6.39024 6.44161 7.46024 5.54262 8.61529C5.11302 9.16155 4.84646 9.64549 4.84646 9.93539C4.84646 14.1583 15.3714 17.22 25.2125 17.22C35.6984 17.22 40.3782 13.7762 40.3782 10.7497C40.3782 9.66812 39.9597 9.0367 38.8891 7.81246C38.1941 7.0162 37.5369 6.36771 36.841 5.72943C36.8075 5.70155 36.784 5.72428 36.8075 5.75832ZM33.5928 3.346C30.3567 1.39448 26.5986 0.28418 22.5472 0.28418C18.4675 0.28418 14.5962 1.43327 11.3484 3.4364C10.3741 4.03963 9.82585 4.52307 9.82585 5.14438C9.82585 6.9761 14.0809 8.94559 21.6298 8.94559C29.1004 8.94559 34.8946 6.78832 34.8946 4.71186C34.8946 4.2162 34.464 3.86943 33.5928 3.346Z" fill="#231F20"/>
</svg>
