<svg width="53" height="31" viewBox="0 0 53 31" fill="none" xmlns="http://www.w3.org/2000/svg">
<path d="M15.0391 29.5V27.2083C15.0391 24.1694 16.2463 21.2549 18.3951 19.1061C20.544 16.9572 23.4585 15.75 26.4974 15.75M26.4974 15.75C29.5363 15.75 32.4508 16.9572 34.5997 19.1061C36.7485 21.2549 37.9557 24.1694 37.9557 27.2083V29.5M26.4974 15.75C28.3208 15.75 30.0694 15.0257 31.3588 13.7364C32.6481 12.447 33.3724 10.6984 33.3724 8.875C33.3724 7.05164 32.6481 5.30295 31.3588 4.01364C30.0694 2.72433 28.3208 2 26.4974 2C24.674 2 22.9253 2.72433 21.636 4.01364C20.3467 5.30295 19.6224 7.05164 19.6224 8.875C19.6224 10.6984 20.3467 12.447 21.636 13.7364C22.9253 15.0257 24.674 15.75 26.4974 15.75ZM1.28906 29.5V27.2083C1.28906 25.385 2.01339 23.6363 3.3027 22.347C4.59202 21.0577 6.3407 20.3333 8.16406 20.3333M8.16406 20.3333C9.37964 20.3333 10.5454 19.8504 11.405 18.9909C12.2645 18.1314 12.7474 16.9656 12.7474 15.75C12.7474 14.5344 12.2645 13.3686 11.405 12.5091C10.5454 11.6496 9.37964 11.1667 8.16406 11.1667C6.94849 11.1667 5.7827 11.6496 4.92316 12.5091C4.06361 13.3686 3.58073 14.5344 3.58073 15.75C3.58073 16.9656 4.06361 18.1314 4.92316 18.9909C5.7827 19.8504 6.94849 20.3333 8.16406 20.3333ZM51.7057 29.5V27.2083C51.7057 25.385 50.9814 23.6363 49.6921 22.347C48.4028 21.0577 46.6541 20.3333 44.8307 20.3333M44.8307 20.3333C46.0463 20.3333 47.2121 19.8504 48.0716 18.9909C48.9312 18.1314 49.4141 16.9656 49.4141 15.75C49.4141 14.5344 48.9312 13.3686 48.0716 12.5091C47.2121 11.6496 46.0463 11.1667 44.8307 11.1667C43.6152 11.1667 42.4494 11.6496 41.5898 12.5091C40.7303 13.3686 40.2474 14.5344 40.2474 15.75C40.2474 16.9656 40.7303 18.1314 41.5898 18.9909C42.4494 19.8504 43.6152 20.3333 44.8307 20.3333Z" stroke="black" stroke-width="2.6" stroke-linecap="round" stroke-linejoin="round"/>
</svg>
