<svg width="136" height="37" viewBox="0 0 136 37" fill="none" xmlns="http://www.w3.org/2000/svg">
<path d="M22.5636 13.4793C22.5636 11.4283 23.9514 9.4385 24.7065 9.81605C25.5738 10.2446 24.0636 12.1834 22.5636 13.4793ZM13.1248 14.2242C13.1248 12.5711 14.7473 9.4487 15.7473 9.77523C16.9208 10.163 14.7677 13.3263 13.1248 14.2242ZM11.4718 26.0201C10.7269 26.0507 10.2269 25.5711 10.2269 24.7752C10.2269 22.6324 13.2065 20.5814 15.4514 19.4793C15.0534 22.4793 14.0432 25.8977 11.4718 26.0201ZM25.2065 19.0303C23.5126 19.0303 22.2167 20.2752 22.2167 21.7752C22.2167 23.0201 22.9616 24.0201 23.9616 24.0201C24.3085 24.0201 24.6657 23.816 24.6657 23.3671C24.6657 22.714 23.7983 22.5609 23.8697 21.5916C23.9106 20.9487 24.5126 20.5201 25.1146 20.5201C26.3085 20.5201 26.8697 21.6834 26.8697 22.8773C26.8187 24.7242 25.4616 26.0099 23.8595 26.0099C21.7677 26.0099 20.4208 24.0099 20.4208 21.8671C20.4208 18.6732 22.5126 17.4181 23.6146 17.1222C23.6248 17.1222 26.482 17.6324 26.4004 16.3671C26.3493 15.816 25.533 15.6018 24.931 15.5814C24.2677 15.5507 23.6044 15.7956 23.6044 15.7956C23.2575 15.6222 23.0126 15.2752 22.8595 14.8773C24.9106 13.3263 26.3595 11.8263 26.3595 10.1324C26.3595 9.23442 25.7575 8.4385 24.6146 8.4385C22.5636 8.4385 21.0126 11.0405 21.0126 13.3875C21.0126 13.7854 21.0126 14.1834 21.1146 14.5405C19.8187 15.4895 18.8493 16.0814 17.1044 17.1324C17.1044 16.9079 17.1453 16.3467 17.2983 15.6222C17.8901 14.9691 18.7167 13.9997 18.7167 13.2446C18.7167 12.8977 18.5228 12.5916 18.1146 12.5916C17.1248 12.5916 16.3697 14.0916 16.1759 15.1426C15.7269 15.6936 14.8187 16.3875 14.0738 16.3875C13.4718 16.3875 13.2779 15.8365 13.2269 15.6426C15.1248 14.9895 17.4718 12.3977 17.4718 10.0507C17.4718 9.55074 17.2677 8.4487 15.7677 8.4487C13.5228 8.4487 11.6248 11.7956 11.6248 14.3875C10.8289 14.3875 10.533 13.5405 10.533 12.8875C10.533 12.2344 10.7779 11.5916 10.7779 11.3875C10.7779 11.1834 10.6759 10.9385 10.3799 10.9385C9.63504 10.9385 9.18607 11.9385 9.18607 13.0814C9.23709 14.6834 10.2881 15.6834 11.6861 15.7854C11.8901 16.7344 12.7371 17.6324 13.7881 17.6324C14.431 17.6324 15.2269 17.4283 15.7779 16.9283C15.7371 17.2752 15.6861 17.5814 15.635 17.8773C13.431 19.0303 11.8391 19.8263 10.3901 21.1222C9.24729 22.1732 8.59423 23.5711 8.59423 24.663C8.59423 26.163 9.54321 27.5609 11.4922 27.5609C13.7983 27.5609 15.5432 25.714 16.3901 23.163C16.7881 21.9691 16.9514 20.2242 17.0534 18.6222C19.3493 17.3263 20.4412 16.5711 21.635 15.7242C21.7881 15.9793 21.931 16.1732 22.135 16.3263C21.084 16.8773 18.584 18.4283 18.584 22.0712C18.584 24.663 20.3391 27.5609 23.7779 27.5609C26.635 27.5609 28.5738 25.214 28.5738 22.9691C28.5738 20.9181 27.431 19.0201 25.2269 19.0201L25.2065 19.0303ZM33.7983 23.316L33.7065 23.3365L33.6555 23.2752C33.6555 23.2752 34.2575 21.4691 34.2473 19.4283C34.2473 17.2242 33.3493 15.8773 32.2065 15.8773C31.5024 15.8773 31.0024 16.3773 31.0024 17.1222C31.0024 18.4691 32.6555 18.5711 32.6555 21.5201C32.6555 22.714 32.4004 23.8671 32.0024 25.112C30.1555 31.3569 24.2677 34.2548 18.5228 34.2548C15.8697 34.2548 13.9922 33.714 13.431 33.4589L13.4004 33.3569L13.482 33.3058C13.7065 33.3977 15.3187 33.8977 17.3187 33.8977C19.5126 33.8977 20.8187 32.9997 20.8187 31.8977C20.8187 31.1936 20.2677 30.6528 19.5636 30.6528C18.2167 30.6528 18.1146 32.3467 15.2167 32.3467C13.9718 32.3467 12.8697 32.1018 11.5738 31.7038C5.37994 29.8058 2.43096 23.9589 2.43096 18.163C2.43096 15.3365 3.22688 13.0916 3.23709 13.0711L3.32892 13.0507L3.37994 13.112C3.30851 13.3467 2.7779 14.9589 2.7779 16.9589C2.7779 19.163 3.67586 20.4589 4.82892 20.4589C5.47178 20.4589 6.0228 19.9589 6.0228 19.265C6.0228 17.9181 4.36974 17.765 4.36974 14.8671C4.36974 13.6222 4.62484 12.5201 5.0228 11.2242C6.93096 5.04054 12.7779 2.13237 18.5228 2.09156C21.1861 2.07115 23.5228 2.86707 23.6146 2.9385V3.03033L23.5636 3.08135C23.5636 3.08135 22.0126 2.4385 19.7167 2.4385C17.5738 2.4385 16.2167 3.33646 16.2167 4.48952C16.2167 5.13237 16.7167 5.68339 17.4718 5.68339C18.8187 5.68339 18.9208 4.04054 21.8187 4.04054C23.0636 4.04054 24.1657 4.28543 25.4616 4.6936C31.7065 6.59156 34.5432 12.4895 34.6044 18.1834C34.6248 21.1018 33.8085 23.3058 33.7983 23.3263V23.316ZM18.5228 0.989517C9.033 0.989517 1.33913 8.68339 1.33913 18.1732C1.33913 27.663 9.033 35.3569 18.5228 35.3569C28.0126 35.3569 35.6963 27.663 35.6963 18.1732C35.6963 8.68339 28.0126 0.989517 18.5228 0.989517ZM18.5228 36.2038C8.58402 36.2038 0.492188 28.163 0.492188 18.1732C0.492188 8.18339 8.58402 0.142578 18.5228 0.142578C28.4616 0.142578 36.5432 8.23441 36.5432 18.1732C36.5432 28.112 28.4616 36.2038 18.5228 36.2038Z" fill="#231F20"/>
<path d="M45.7578 18.1936V18.1731C45.7578 16.2446 47.2679 14.7344 49.3189 14.7344C50.4822 14.7344 51.2986 15.0915 52.0027 15.6936L50.921 16.9895C50.4516 16.5915 49.9823 16.367 49.3292 16.367C48.3803 16.367 47.6456 17.1732 47.6456 18.1834V18.2038C47.6456 19.2752 48.3905 20.0303 49.4313 20.0303C49.8803 20.0303 50.217 19.9385 50.4925 19.7548V18.9487H49.1864V17.6119H52.2272V20.5813C51.5231 21.1629 50.5537 21.6017 49.3599 21.6017C47.2986 21.6017 45.7578 20.1834 45.7578 18.1834V18.1936Z" fill="#231F20"/>
<path d="M54.1875 14.8672H59.5038V16.4284H56.0038V17.4284H59.1671V18.8672H56.0038V19.9182H59.5446V21.4794H54.1875V14.8672Z" fill="#231F20"/>
<path d="M68.8613 18.8674L68.1266 16.9899L67.3817 18.8674H68.8613ZM67.2592 14.8164H69.0245L71.8409 21.4695H69.8715L69.3919 20.2858H66.8511L66.3715 21.4695H64.4531L67.2592 14.8164Z" fill="#231F20"/>
<path d="M76.1158 18.1529C76.7688 18.1529 77.1668 17.8162 77.1668 17.2958V17.2754C77.1668 16.7039 76.7688 16.408 76.1055 16.408H75.2484V18.1529H76.1158ZM73.4219 14.8672H76.2484C77.9219 14.8672 78.9936 15.7243 78.9936 17.1835V17.2039C78.9936 18.7651 77.7994 19.5815 76.1566 19.5815H75.2484V21.4692H73.4219V14.8672Z" fill="#231F20"/>
<path d="M83.4072 18.1529C84.0603 18.1529 84.448 17.8162 84.448 17.2958V17.2754C84.448 16.7039 84.0603 16.408 83.397 16.408H82.5399V18.1529H83.4072ZM80.7031 14.8672H83.5399C85.2133 14.8672 86.2848 15.7243 86.2848 17.1835V17.2039C86.2848 18.7651 85.0807 19.5815 83.448 19.5815H82.5399V21.4692H80.7031V14.8672Z" fill="#231F20"/>
<path d="M88 14.8672H89.8265V19.8672H93.0306V21.4794H88V14.8672Z" fill="#231F20"/>
<path d="M94.7969 21.4794H96.6336V14.8672H94.7969V21.4794Z" fill="#231F20"/>
<path d="M102.676 18.8674L101.931 16.9899L101.186 18.8674H102.676ZM101.064 14.8164H102.829L105.646 21.4695H103.686L103.197 20.2858H100.656L100.176 21.4695H98.2578L101.064 14.8164Z" fill="#231F20"/>
<path d="M107.227 14.8672H108.931L111.655 18.3672V14.8672H113.461V21.4794H111.859L109.033 17.857V21.4794H107.227V14.8672Z" fill="#231F20"/>
<path d="M115.352 18.1731C115.352 16.2446 116.831 14.7344 118.831 14.7344C120.178 14.7344 121.045 15.2956 121.637 16.1119L120.26 17.1731C119.882 16.7038 119.443 16.3976 118.811 16.3976C117.892 16.3976 117.239 17.1834 117.239 18.1425V18.1629C117.239 19.1527 117.892 19.9283 118.811 19.9283C119.505 19.9283 119.913 19.6119 120.301 19.1221L121.678 20.1017C121.056 20.9589 120.219 21.5915 118.76 21.5915C116.872 21.5915 115.352 20.1425 115.352 18.1731Z" fill="#231F20"/>
<path d="M123.398 14.8672H128.715V16.4284H125.215V17.4284H128.388V18.8672H125.215V19.9182H128.766V21.4794H123.398V14.8672Z" fill="#231F20"/>
<path d="M130.133 20.4999L131.153 19.2856C131.806 19.806 132.531 20.0815 133.296 20.0815C133.786 20.0815 134.051 19.908 134.051 19.6325V19.6121C134.051 19.3366 133.837 19.1836 132.939 18.9795C131.531 18.6631 130.449 18.2652 130.449 16.908V16.8876C130.449 15.6631 131.419 14.7754 133 14.7754C134.133 14.7754 135.01 15.0815 135.725 15.6529L134.806 16.9489C134.204 16.5203 133.541 16.2958 132.959 16.2958C132.51 16.2958 132.296 16.4795 132.296 16.7142V16.7346C132.296 17.0305 132.521 17.1631 133.439 17.3774C134.959 17.704 135.898 18.1938 135.898 19.4387V19.4591C135.898 20.806 134.837 21.6121 133.235 21.6121C132.061 21.6121 130.949 21.2448 130.133 20.5203V20.4999Z" fill="#231F20"/>
</svg>
