<svg width="200" height="78" viewBox="0 0 200 78" fill="none" xmlns="http://www.w3.org/2000/svg">
<mask id="mask0_1743_1256" style="mask-type:luminance" maskUnits="userSpaceOnUse" x="51" y="15" width="39" height="53">
<path d="M51.0859 15.6055H89.4278V67.0428H51.0859V15.6055Z" fill="white"/>
</mask>
<g mask="url(#mask0_1743_1256)">
<path d="M69.2777 15.6416H70.8593C72.4314 15.7726 74.0051 16.2106 75.3207 17.1068C76.9 18.1451 78.0237 19.8104 78.4938 21.6364C79.0813 23.9102 78.8346 26.355 78.0052 28.5355C77.7351 29.3062 77.4546 30.0746 77.1805 30.8437C78.4568 30.5094 79.705 29.9219 80.6148 28.943C81.5993 27.9384 82.1 26.5801 82.4215 25.2354C84.7402 25.2234 87.0581 25.233 89.376 25.2298C88.1777 28.4141 87.2945 31.7777 87.3555 35.2046C87.3772 39.1597 88.8198 42.9138 89.2128 46.8239C89.5039 49.4689 89.4202 52.1895 88.6615 54.7549C87.9663 57.1524 86.6965 59.3875 84.9604 61.1806C83.2204 63.001 81.0464 64.3762 78.7076 65.2835C75.7081 66.4537 72.4611 66.8974 69.256 66.8315C65.4335 66.7519 61.5572 65.8823 58.2733 63.8666C55.437 62.1483 53.0966 59.5314 51.9319 56.4009C50.7594 53.293 50.8405 49.7069 52.2526 46.6913C53.3473 44.3324 55.3131 42.4252 57.6423 41.2992C60.518 39.912 63.8044 39.5624 66.9534 39.8871C67.393 38.7442 67.8246 37.5974 68.273 36.4577C65.6223 35.3228 63.2104 33.4421 61.8232 30.8695C59.6998 27.0069 60.1804 21.7779 63.2265 18.5382C64.7737 16.8327 66.9959 15.8128 69.2777 15.6416ZM67.5392 23.7422C67.012 24.9116 66.9534 26.3132 67.5231 27.4779C68.1404 28.7653 69.1193 29.9621 70.4439 30.5488C70.713 29.9339 70.9357 29.2983 71.18 28.6737C71.5521 27.6772 72.0071 26.6926 72.1316 25.6252C72.2602 24.7396 72.1244 23.7623 71.5449 23.0518C70.9421 22.3333 69.8869 22.0504 69.0027 22.347C68.3333 22.5599 67.8254 23.1169 67.5392 23.7422ZM74.7863 37.2919C74.2655 38.733 73.7004 40.1588 73.195 41.6071C74.7927 42.3585 76.4468 43.1349 77.7021 44.4169C76.9137 46.4237 76.1269 48.4305 75.3079 50.4253C74.0686 49.1997 72.6243 48.1581 70.9944 47.5247C70.1103 49.8692 69.2447 52.2185 68.3751 54.5685C66.1046 54.5741 63.8342 54.5717 61.5637 54.5701C62.5779 51.8551 63.5866 49.1371 64.5961 46.4189C62.3666 46.3514 60.1282 47.4822 58.9226 49.3749C58.4099 50.1657 58.0988 51.1214 58.2282 52.0706C58.352 54.0767 59.3888 55.9645 60.9344 57.2288C63.0457 58.9769 65.8153 59.6906 68.4988 59.8915C70.7171 60.0434 72.99 59.9116 75.1094 59.1946C77.0182 58.5775 78.784 57.4394 80.0249 55.8456C81.6492 53.7921 82.2841 51.0772 82.0984 48.494C81.9176 46.5137 81.441 44.5759 81.0809 42.6237C80.6622 40.4256 80.3142 38.1978 80.3142 35.953C78.5396 36.6394 76.6782 37.0918 74.7863 37.2919Z" fill="#231F20"/>
</g>
<path d="M85.8988 22.7057C89.4013 20.0437 91.1783 18.5585 92.3115 16.5902C93.9062 13.8222 92.9401 11.4738 90.9195 10.5568C89.0252 9.69521 86.7764 10.5037 85.8988 12.3611C85.0203 10.5037 82.7715 9.69521 80.8772 10.5568C78.8567 11.4738 77.8906 13.8222 79.486 16.5902C80.6192 18.5585 82.3954 20.0437 85.8988 22.7057Z" fill="#E32123"/>
<path d="M95.2188 30.2761V30.248C95.2188 27.4599 97.3912 25.1758 100.362 25.1758C102.126 25.1758 103.192 25.6515 104.214 26.5211L102.855 28.1607C102.099 27.5298 101.426 27.165 100.292 27.165C98.7221 27.165 97.4755 28.553 97.4755 30.2198V30.2479C97.4755 32.0418 98.7084 33.3583 100.445 33.3583C101.23 33.3583 101.93 33.1622 102.477 32.7708V31.3691H100.305V29.5053H104.565V33.765C103.556 34.6193 102.169 35.3201 100.375 35.3201C97.3213 35.3201 95.2188 33.1767 95.2188 30.2761Z" fill="#231F20"/>
<path d="M106.047 31.4393V31.4112C106.047 29.2669 107.575 27.502 109.76 27.502C112.269 27.502 113.418 29.4494 113.418 31.5792C113.418 31.7472 113.403 31.9441 113.39 32.1402H108.163C108.373 33.1071 109.046 33.6109 109.998 33.6109C110.714 33.6109 111.232 33.3875 111.821 32.8402L113.04 33.9196C112.339 34.7884 111.33 35.3204 109.971 35.3204C107.715 35.3204 106.047 33.7371 106.047 31.4393ZM111.344 30.8084C111.218 29.8561 110.657 29.2114 109.76 29.2114C108.878 29.2114 108.303 29.8424 108.135 30.8084H111.344Z" fill="#231F20"/>
<path d="M115 27.6418H117.129V28.7067C117.62 28.0758 118.251 27.502 119.329 27.502C120.94 27.502 121.88 28.5668 121.88 30.29V35.1525H119.749V30.9627C119.749 29.9541 119.274 29.4357 118.461 29.4357C117.647 29.4357 117.129 29.9541 117.129 30.9627V35.1525H115V27.6418Z" fill="#231F20"/>
<path d="M123.367 31.4393V31.4112C123.367 29.2669 124.894 27.502 127.08 27.502C129.588 27.502 130.738 29.4494 130.738 31.5792C130.738 31.7472 130.724 31.9441 130.709 32.1402H125.482C125.693 33.1071 126.366 33.6109 127.319 33.6109C128.034 33.6109 128.552 33.3875 129.14 32.8402L130.359 33.9196C129.658 34.7884 128.65 35.3204 127.29 35.3204C125.035 35.3204 123.367 33.7371 123.367 31.4393ZM128.663 30.8084C128.538 29.8561 127.977 29.2114 127.08 29.2114C126.197 29.2114 125.623 29.8424 125.455 30.8084H128.663Z" fill="#231F20"/>
<path d="M132.32 27.6421H134.451V29.1555C134.885 28.1188 135.585 27.446 136.847 27.5023V29.7302H136.734C135.319 29.7302 134.451 30.5853 134.451 32.3784V35.1528H132.32V27.6421Z" fill="#231F20"/>
<path d="M137.375 32.9939V32.9658C137.375 31.3262 138.621 30.5691 140.401 30.5691C141.158 30.5691 141.704 30.6961 142.238 30.8785V30.7516C142.238 29.8691 141.69 29.3788 140.626 29.3788C139.812 29.3788 139.238 29.5332 138.552 29.7855L138.018 28.1604C138.846 27.7955 139.658 27.5576 140.933 27.5576C142.097 27.5576 142.938 27.8654 143.47 28.3983C144.031 28.9585 144.282 29.7855 144.282 30.7942V35.1519H142.222V34.3393C141.704 34.9132 140.99 35.2918 139.953 35.2918C138.537 35.2918 137.375 34.4791 137.375 32.9939ZM142.265 32.5037V32.1251C141.9 31.9571 141.424 31.8454 140.905 31.8454C139.995 31.8454 139.434 32.2095 139.434 32.8814V32.9103C139.434 33.4842 139.91 33.8201 140.597 33.8201C141.592 33.8201 142.265 33.2744 142.265 32.5037Z" fill="#231F20"/>
<path d="M146.219 35.1526H148.348V24.9238H146.219V35.1526Z" fill="#231F20"/>
<path d="M95.6485 38.8643H97.9736L100.553 43.0114L103.13 38.8643H105.456V48.6727H103.313V42.2696L100.553 46.4585H100.496L97.7638 42.3114V48.6727H95.6484L95.6485 38.8643Z" fill="#231F20"/>
<path d="M107.633 38.4453H109.875V40.3364H107.633V38.4453ZM107.688 41.1626H109.818V48.6733H107.688V41.1626Z" fill="#231F20"/>
<path d="M111.914 48.6741H114.043V38.4453H111.914V48.6741Z" fill="#231F20"/>
<path d="M116.148 48.6741H118.279V38.4453H116.148V48.6741Z" fill="#231F20"/>
<path d="M119.695 47.6782L120.605 46.2772C121.419 46.8655 122.273 47.1742 122.974 47.1742C123.59 47.1742 123.871 46.9492 123.871 46.6132V46.5851C123.871 46.1229 123.143 45.9687 122.316 45.7162C121.264 45.4085 120.073 44.9182 120.073 43.4611V43.4321C120.073 41.9051 121.306 41.0508 122.82 41.0508C123.772 41.0508 124.809 41.373 125.622 41.9196L124.809 43.3912C124.067 42.9563 123.325 42.6903 122.777 42.6903C122.259 42.6903 121.993 42.9145 121.993 43.2087V43.236C121.993 43.6572 122.706 43.8525 123.521 44.133C124.571 44.4834 125.79 44.9882 125.79 46.3609V46.389C125.79 48.0567 124.544 48.813 122.918 48.813C121.867 48.813 120.689 48.4625 119.695 47.6782Z" fill="#231F20"/>
</svg>
