<svg width="201" height="80" viewBox="0 0 201 80" fill="none" xmlns="http://www.w3.org/2000/svg">
<path d="M42.0904 46.4372H39.5156V34.4212H42.0904V39.1895H46.7634V34.4212H49.3382V46.4372H46.7634V41.4782H42.0904V46.4372ZM55.2508 46.6279C52.5806 46.6279 50.8641 44.9114 50.8641 42.2412C50.8641 39.5709 52.5806 37.7589 54.9648 37.7589C57.5396 37.7589 58.7794 39.4756 58.7794 42.0504V43.004H53.3436C53.6296 44.3391 54.6787 44.7207 55.7277 44.7207C56.5859 44.7207 57.2536 44.53 58.1118 44.0531H58.2072V46.0558C57.4443 46.3419 56.4906 46.6279 55.2508 46.6279ZM53.3436 41.0968H56.3952C56.2999 40.2384 56.0138 39.5709 54.9648 39.5709C54.2018 39.6663 53.5343 39.9524 53.3436 41.0968ZM65.4549 41.3828L64.1198 46.4372H61.831L59.2562 37.9498V37.8543H61.7357L63.1661 42.9087L64.5013 37.8543H66.504L67.8391 42.9087L69.2695 37.8543H71.6537V37.9498L69.0788 46.4372H66.79L65.4549 41.3828ZM75.9451 46.6279C73.847 46.6279 73.0842 45.7697 73.0842 43.8623V34.4212H75.5637V43.6716C75.5637 44.2438 75.7544 44.4346 76.3265 44.4346C76.5173 44.4346 76.7081 44.3391 76.8988 44.3391V46.4372C76.7081 46.5326 76.3265 46.6279 75.9451 46.6279ZM82.0485 46.6279C79.3783 46.6279 77.6616 44.9114 77.6616 42.2412C77.6616 39.5709 79.3783 37.7589 81.7624 37.7589C84.3373 37.7589 85.577 39.4756 85.577 42.0504V43.004H80.1411C80.4273 44.3391 81.4763 44.7207 82.5253 44.7207C83.3836 44.7207 84.0511 44.53 84.9094 44.0531V46.0558C84.1465 46.3419 83.1929 46.6279 82.0485 46.6279ZM80.0458 41.0968H83.0975C83.0022 40.2384 82.716 39.5709 81.6671 39.5709C80.9041 39.6663 80.2365 39.9524 80.0458 41.0968ZM95.7811 37.8543H97.6884V39.857H95.7811V43.2902C95.7811 44.0531 96.0672 44.3391 96.8301 44.3391C97.0208 44.3391 97.307 44.3391 97.593 44.2438H97.6884V46.2465C97.4023 46.3419 96.8301 46.5326 96.1626 46.5326C94.1599 46.5326 93.3015 45.5789 93.3015 43.3856V39.7617H90.0592V43.1948C90.0592 43.9577 90.3452 44.2438 91.1082 44.2438C91.2989 44.2438 91.585 44.2438 91.8711 44.1484H91.9664V46.1511C91.6804 46.2465 91.1082 46.4372 90.4406 46.4372C88.438 46.4372 87.5797 45.4835 87.5797 43.2902V39.6663H86.2446V37.6636H87.5797V35.2794H90.0592V37.6636H93.3015V35.2794H95.7811V37.8543ZM110.753 38.4265C110.753 41.0014 109.037 42.4319 106.366 42.4319H104.554V46.3418H101.98V34.4212H106.462C109.037 34.4212 110.753 35.8517 110.753 38.4265ZM106.176 40.3338C107.511 40.3338 108.083 39.5709 108.083 38.5219C108.083 37.3775 107.415 36.6146 106.176 36.6146H104.554V40.3338H106.176ZM116.38 45.5789C115.808 46.2465 115.045 46.5326 114.091 46.5326C112.47 46.5326 111.04 45.4835 111.04 43.6716C111.04 41.9551 112.375 40.906 114.378 40.906C114.949 40.906 115.617 41.0014 116.285 41.1921V41.0014C116.285 40.0477 115.808 39.6663 114.378 39.6663C113.52 39.6663 112.66 39.9524 111.993 40.3338H111.898V38.3312C112.565 37.9498 113.709 37.6636 114.854 37.6636C117.429 37.6636 118.764 38.9033 118.764 41.0014V46.3418H116.38V45.5789ZM116.285 43.6716V42.9087C115.903 42.7179 115.427 42.6226 114.854 42.6226C113.996 42.6226 113.52 42.9087 113.52 43.5763C113.52 44.2438 113.996 44.6253 114.758 44.6253C115.522 44.7207 116.094 44.3391 116.285 43.6716ZM120.099 42.1458C120.099 39.3802 122.006 37.6636 124.582 37.6636C125.44 37.6636 126.298 37.8543 126.965 38.3312V40.5246H126.871C126.298 40.1431 125.631 39.857 124.962 39.857C123.724 39.857 122.77 40.7153 122.77 42.1458C122.77 43.5763 123.724 44.4346 124.962 44.4346C125.726 44.4346 126.393 44.1484 126.871 43.767V45.9604C126.202 46.4372 125.44 46.6279 124.486 46.6279C122.006 46.6279 120.099 44.9114 120.099 42.1458ZM130.971 42.5272V46.4372H128.491V34.4212H130.971V41.2875L133.546 37.9498H136.406V38.0451L133.355 41.9551L136.406 46.4372V46.5326H133.546L130.971 42.5272ZM142.129 45.5789C141.556 46.2465 140.793 46.5326 139.84 46.5326C138.218 46.5326 136.788 45.4835 136.788 43.6716C136.788 41.9551 138.124 40.906 140.126 40.906C140.698 40.906 141.365 41.0014 142.033 41.1921V41.0014C142.033 40.0477 141.556 39.6663 140.126 39.6663C139.267 39.6663 138.409 39.9524 137.742 40.3338H137.646V38.3312C138.314 37.9498 139.458 37.6636 140.603 37.6636C143.178 37.6636 144.512 38.9033 144.512 41.0014V46.3418H142.129V45.5789ZM142.033 43.6716V42.9087C141.652 42.7179 141.175 42.6226 140.603 42.6226C139.744 42.6226 139.267 42.9087 139.267 43.5763C139.267 44.2438 139.744 44.6253 140.507 44.6253C141.271 44.7207 141.843 44.3391 142.033 43.6716ZM148.804 39.1895C149.281 38.2358 149.948 37.6636 150.902 37.6636C151.284 37.6636 151.569 37.7589 151.76 37.8543V40.2384H151.665C151.379 40.1431 150.997 40.0477 150.521 40.0477C149.758 40.0477 149.09 40.5246 148.899 41.3828V46.3418H146.421V37.7589H148.899V39.1895H148.804ZM158.436 45.4835C157.863 46.1511 157.101 46.5326 155.956 46.5326C153.763 46.5326 152.428 44.53 152.428 42.0504C152.428 39.5709 153.858 37.5682 155.956 37.5682C157.101 37.5682 157.863 37.9498 158.436 38.5219V34.2305H160.915V46.2465H158.436V45.4835ZM158.341 43.4809V40.7153C157.959 40.1431 157.387 39.857 156.719 39.857C155.575 39.857 154.907 40.62 154.907 42.1458C154.907 43.5763 155.671 44.4346 156.719 44.4346C157.387 44.4346 157.959 44.1484 158.341 43.4809ZM39.5156 50.3472H46.8587V51.7777H41.1368V55.4969H46.2865V56.9274H41.2322V60.9327H46.9541V62.3632H39.5156V50.3472ZM52.9621 53.685C54.8694 53.685 55.9184 54.9248 55.9184 57.0227V62.3632H54.3926V57.1181C54.3926 56.0691 53.8204 55.2108 52.676 55.2108C51.7224 55.2108 50.8641 55.8783 50.578 56.7367V62.3632H48.9567V53.8757H50.578V55.1155C50.9594 54.3525 51.8177 53.685 52.9621 53.685ZM60.2098 53.8757H62.4033V55.2108H60.2098V59.7883C60.2098 60.742 60.6866 61.1234 61.6403 61.1234C61.9264 61.1234 62.1172 61.1234 62.3079 61.0281H62.4033V62.3632C62.2126 62.4585 61.831 62.5539 61.4496 62.5539C59.447 62.5539 58.684 61.6957 58.684 59.979V55.3062H57.2536V53.9711H58.684V51.6823H60.3052V53.8757H60.2098ZM67.4576 62.5539C64.9781 62.5539 63.3569 60.9327 63.3569 58.2625C63.3569 55.5923 64.8828 53.7804 67.1715 53.7804C69.4603 53.7804 70.7 55.4969 70.7 57.9764V58.7393H64.9781C65.1689 60.4559 66.2179 61.3141 67.7437 61.3141C68.6974 61.3141 69.3649 61.1234 70.1279 60.5513H70.2232V61.9817C69.4603 62.2678 68.5066 62.5539 67.4576 62.5539ZM64.9781 57.3088H69.1742C69.0788 56.0691 68.5066 55.1155 67.1715 55.1155C66.0272 55.1155 65.2642 55.9737 64.9781 57.3088ZM74.1332 55.2108C74.5146 54.3525 75.2776 53.7804 76.2312 53.7804C76.6127 53.7804 76.8988 53.8757 77.0895 53.8757V55.4969H76.9941C76.8034 55.4016 76.422 55.3062 76.0405 55.3062C75.1822 55.3062 74.4193 55.8783 74.2286 56.832V62.3632H72.6074V53.8757H74.2286V55.2108H74.1332ZM82.4299 53.685C84.9094 53.685 86.2446 55.783 86.2446 58.0718C86.2446 60.4559 84.9094 62.4585 82.4299 62.4585C81.3809 62.4585 80.5227 61.8864 80.0458 61.3141V65.5103H78.4246V53.8757H80.0458V54.8293C80.5227 54.2572 81.3809 53.685 82.4299 53.685ZM82.1439 61.1234C83.6697 61.1234 84.6234 59.8837 84.6234 58.1671C84.6234 56.4506 83.6697 55.2108 82.1439 55.2108C81.2855 55.2108 80.5227 55.6876 80.0458 56.5459V59.7883C80.5227 60.5513 81.2855 61.1234 82.1439 61.1234ZM89.7731 55.2108C90.1545 54.3525 90.9175 53.7804 91.8711 53.7804C92.2526 53.7804 92.5387 53.8757 92.7294 53.8757V55.4969H92.5387C92.348 55.3062 91.9664 55.3062 91.585 55.3062C90.7267 55.3062 89.9638 55.8783 89.7731 56.832V62.3632H88.1518V53.8757H89.7731V55.2108ZM94.9228 50.4425C95.495 50.4425 95.9719 50.9193 95.9719 51.3962C95.9719 51.9684 95.495 52.3499 94.9228 52.3499C94.3506 52.3499 93.8738 51.873 93.8738 51.3962C93.8738 50.9193 94.3506 50.4425 94.9228 50.4425ZM94.1599 53.8757H95.7811V62.3632H94.1599V53.8757ZM101.408 57.4042C102.647 57.7857 103.983 58.2625 103.983 59.8837C103.983 61.6003 102.552 62.4585 100.74 62.4585C99.5957 62.4585 98.5466 62.1725 97.8791 61.6957V60.1698H97.9745C98.642 60.8374 99.691 61.1234 100.74 61.1234C101.598 61.1234 102.457 60.742 102.457 60.0745C102.457 59.3115 101.789 59.1208 100.454 58.7393C99.3096 58.3578 97.9745 57.8811 97.9745 56.3552C97.9745 54.7339 99.3096 53.7804 101.026 53.7804C101.98 53.7804 102.934 53.9711 103.601 54.4479V55.9737H103.505C102.838 55.4016 101.98 55.1155 101.026 55.1155C100.073 55.1155 99.5003 55.5923 99.5003 56.1644C99.4049 56.7367 99.9772 56.9274 101.408 57.4042ZM109.418 62.5539C106.939 62.5539 105.317 60.9327 105.317 58.2625C105.317 55.5923 106.843 53.7804 109.132 53.7804C111.421 53.7804 112.66 55.4969 112.66 57.9764V58.7393H106.939C107.13 60.4559 108.179 61.3141 109.704 61.3141C110.658 61.3141 111.326 61.1234 112.089 60.5513H112.184V61.9817C111.326 62.2678 110.467 62.5539 109.418 62.5539ZM106.939 57.3088H111.135C111.04 56.0691 110.467 55.1155 109.132 55.1155C107.893 55.1155 107.13 55.9737 106.939 57.3088Z" fill="black"/>
<path d="M39.5156 26.5053H81.0948V14.4893H39.5156V26.5053ZM42.0904 17.1595H78.4246V23.9304H42.0904V17.1595Z" fill="#231F20"/>
</svg>
