<svg width="40" height="40" viewBox="0 0 40 40" fill="none" xmlns="http://www.w3.org/2000/svg">
<path d="M28.3333 6.66634C27.8913 6.66634 27.4674 6.49075 27.1548 6.17819C26.8423 5.86563 26.6667 5.4417 26.6667 4.99967C26.6667 4.55765 26.8423 4.13372 27.1548 3.82116C27.4674 3.5086 27.8913 3.33301 28.3333 3.33301H35C35.442 3.33301 35.866 3.5086 36.1785 3.82116C36.4911 4.13372 36.6667 4.55765 36.6667 4.99967V11.6663C36.6667 12.1084 36.4911 12.5323 36.1785 12.8449C35.866 13.1574 35.442 13.333 35 13.333C34.558 13.333 34.134 13.1574 33.8215 12.8449C33.5089 12.5323 33.3333 12.1084 33.3333 11.6663V9.02301L23.6783 18.678C23.3658 18.9905 22.9419 19.166 22.5 19.166C22.0581 19.166 21.6342 18.9905 21.3217 18.678L16.6667 14.023L7.845 22.8447C7.53066 23.1483 7.10966 23.3163 6.67266 23.3125C6.23567 23.3087 5.81765 23.1334 5.50864 22.8244C5.19962 22.5154 5.02434 22.0973 5.02054 21.6603C5.01675 21.2233 5.18474 20.8023 5.48833 20.488L15.4883 10.488C15.8009 10.1756 16.2247 10 16.6667 10C17.1086 10 17.5325 10.1756 17.845 10.488L22.5 15.143L30.9767 6.66634H28.3333ZM8.33333 29.9997V34.9997C8.33333 35.4417 8.15774 35.8656 7.84518 36.1782C7.53262 36.4907 7.10869 36.6663 6.66667 36.6663C6.22464 36.6663 5.80072 36.4907 5.48816 36.1782C5.17559 35.8656 5 35.4417 5 34.9997V29.9997C5 29.5576 5.17559 29.1337 5.48816 28.8212C5.80072 28.5086 6.22464 28.333 6.66667 28.333C7.10869 28.333 7.53262 28.5086 7.84518 28.8212C8.15774 29.1337 8.33333 29.5576 8.33333 29.9997ZM16.6667 23.333C16.6667 22.891 16.4911 22.4671 16.1785 22.1545C15.8659 21.8419 15.442 21.6663 15 21.6663C14.558 21.6663 14.134 21.8419 13.8215 22.1545C13.5089 22.4671 13.3333 22.891 13.3333 23.333V34.9997C13.3333 35.4417 13.5089 35.8656 13.8215 36.1782C14.134 36.4907 14.558 36.6663 15 36.6663C15.442 36.6663 15.8659 36.4907 16.1785 36.1782C16.4911 35.8656 16.6667 35.4417 16.6667 34.9997V23.333ZM23.3333 24.9997C23.7754 24.9997 24.1993 25.1753 24.5118 25.4878C24.8244 25.8004 25 26.2243 25 26.6663V34.9997C25 35.4417 24.8244 35.8656 24.5118 36.1782C24.1993 36.4907 23.7754 36.6663 23.3333 36.6663C22.8913 36.6663 22.4674 36.4907 22.1548 36.1782C21.8423 35.8656 21.6667 35.4417 21.6667 34.9997V26.6663C21.6667 26.2243 21.8423 25.8004 22.1548 25.4878C22.4674 25.1753 22.8913 24.9997 23.3333 24.9997ZM33.3333 18.333C33.3333 17.891 33.1577 17.4671 32.8452 17.1545C32.5326 16.8419 32.1087 16.6663 31.6667 16.6663C31.2246 16.6663 30.8007 16.8419 30.4882 17.1545C30.1756 17.4671 30 17.891 30 18.333V34.9997C30 35.4417 30.1756 35.8656 30.4882 36.1782C30.8007 36.4907 31.2246 36.6663 31.6667 36.6663C32.1087 36.6663 32.5326 36.4907 32.8452 36.1782C33.1577 35.8656 33.3333 35.4417 33.3333 34.9997V18.333Z" fill="black"/>
</svg>
