<svg width="19" height="18" viewBox="0 0 19 18" fill="none" xmlns="http://www.w3.org/2000/svg">
<g clip-path="url(#clip0_1757_3674)">
<path d="M1.67969 17.1664H5.2309V5.74023H1.67969V17.1664Z" fill="white"/>
<path d="M1.38281 2.10539C1.38281 3.22928 2.31734 4.16585 3.43877 4.16585C4.59759 4.16585 5.49474 3.26674 5.49474 2.10539C5.49474 0.981497 4.56021 0.0449219 3.43877 0.0449219C2.31734 0.0449219 1.38281 0.981497 1.38281 2.10539Z" fill="white"/>
<path d="M14.9511 17.165H18.5023V10.9087C18.5023 7.83673 17.8295 5.47656 14.2409 5.47656C12.5213 5.47656 11.3625 6.41313 10.8766 7.31225H10.8392V5.7388H7.4375V17.165H10.9887V11.5081C10.9887 10.047 11.2878 8.58599 13.1194 8.58599C14.9137 8.58599 14.9511 10.3093 14.9511 11.6205V17.165Z" fill="white"/>
</g>
<defs>
<clipPath id="clip0_1757_3674">
<rect width="18" height="18" fill="white" transform="translate(0.984375)"/>
</clipPath>
</defs>
</svg>
