<svg width="29" height="29" viewBox="0 0 29 29" fill="none" xmlns="http://www.w3.org/2000/svg">
<path d="M20.3276 11.7622C20.9907 11.7622 21.6267 12.0257 22.0956 12.4946C22.5645 12.9635 22.8279 13.5994 22.8279 14.2626C22.8279 14.9257 22.5645 15.5617 22.0956 16.0306C21.6267 16.4995 20.9907 16.7629 20.3276 16.7629L18.5959 16.7622C18.3992 16.7657 18.2119 16.8463 18.0741 16.9866C17.9363 17.1269 17.8591 17.3158 17.8592 17.5124C17.8593 17.7091 17.9367 17.8978 18.0746 18.038C18.2125 18.1782 18.3999 18.2586 18.5966 18.262L20.3276 18.262C21.3762 18.2437 22.3758 17.8144 23.1109 17.0663C23.8461 16.3183 24.258 15.3114 24.258 14.2626C24.258 13.2137 23.8461 12.2069 23.1109 11.4588C22.3758 10.7108 21.3762 10.2814 20.3276 10.2632L16.0849 10.2632C15.5338 10.2632 14.9887 10.3771 14.4837 10.5977C13.9787 10.8183 13.5248 11.1409 13.1503 11.5452C12.7759 11.9496 12.489 12.4269 12.3077 12.9473C12.1264 13.4677 12.0546 14.02 12.0968 14.5694C12.1145 14.7658 12.2088 14.9473 12.3592 15.0746C12.5097 15.202 12.7042 15.265 12.9007 15.2501C13.0973 15.2351 13.2801 15.1434 13.4095 14.9947C13.5389 14.846 13.6046 14.6523 13.5924 14.4556C13.5657 14.112 13.6104 13.7667 13.7236 13.4412C13.8367 13.1157 14.016 12.8171 14.25 12.5642C14.4841 12.3113 14.7679 12.1095 15.0837 11.9715C15.3994 11.8335 15.7403 11.7622 16.0849 11.7622L20.3276 11.7622Z" fill="black"/>
<path d="M17.2487 13.9561C17.2311 13.7598 17.1368 13.5783 16.9864 13.451C16.8359 13.3236 16.6414 13.2606 16.4448 13.2755C16.2483 13.2905 16.0655 13.3822 15.9361 13.5309C15.8067 13.6796 15.741 13.8732 15.7532 14.07C15.7799 14.4136 15.7352 14.7589 15.622 15.0844C15.5089 15.4099 15.3296 15.7085 15.0956 15.9614C14.8615 16.2143 14.5777 16.4161 14.2619 16.5541C13.9462 16.6921 13.6053 16.7634 13.2607 16.7634L9.01803 16.7634C8.3549 16.7634 7.71893 16.4999 7.25003 16.031C6.78112 15.5621 6.5177 14.9262 6.5177 14.263C6.5177 13.5999 6.78112 12.9639 7.25003 12.495C7.71893 12.0261 8.3549 11.7627 9.01803 11.7627L10.7497 11.7634C10.9464 11.7599 11.1337 11.6793 11.2715 11.539C11.4093 11.3987 11.4864 11.2098 11.4863 11.0132C11.4863 10.8165 11.4089 10.6278 11.271 10.4876C11.1331 10.3474 10.9457 10.267 10.749 10.2636H9.01803C8.48697 10.2544 7.95939 10.351 7.46608 10.5479C6.97276 10.7447 6.52359 11.0378 6.14477 11.4101C5.76595 11.7824 5.46507 12.2264 5.25968 12.7163C5.05429 13.2061 4.94851 13.7319 4.94851 14.263C4.94851 14.7942 5.05429 15.32 5.25968 15.8098C5.46507 16.2996 5.76595 16.7436 6.14477 17.1159C6.52359 17.4882 6.97276 17.7813 7.46608 17.9782C7.95939 18.175 8.48697 18.2717 9.01803 18.2624L13.2607 18.2624C13.8117 18.2624 14.3569 18.1485 14.8619 17.9279C15.3669 17.7073 15.8208 17.3847 16.1953 16.9803C16.5697 16.576 16.8566 16.0987 17.0379 15.5783C17.2191 15.0579 17.2909 14.5056 17.2487 13.9561Z" fill="black"/>
</svg>
