<svg width="46" height="46" viewBox="0 0 46 46" fill="none" xmlns="http://www.w3.org/2000/svg">
<path d="M25.0781 32.7979C25.0781 30.8854 25.0781 29.9313 25.501 29.1021C25.926 28.275 26.7156 27.6875 28.2948 26.5146L29.3365 25.7396C31.7948 23.9125 33.024 23 34.4531 23C35.8823 23 37.1115 23.9125 39.5698 25.7396L40.6115 26.5146C42.1906 27.6875 42.9802 28.275 43.4031 29.1021C43.826 29.9292 43.8281 30.8854 43.8281 32.7979V35.8708C43.8281 39.625 43.8281 41.5021 42.6073 42.6667C41.3865 43.8313 39.424 43.8333 35.4948 43.8333H25.0781V32.7979Z" stroke="black" stroke-width="2.5" stroke-linecap="round" stroke-linejoin="round"/>
<path d="M35.4974 23.0003V8.41699C35.4974 3.24616 34.4182 2.16699 29.2474 2.16699H20.9141C15.7432 2.16699 14.6641 3.24616 14.6641 8.41699V43.8337" stroke="black" stroke-width="2.5" stroke-linecap="round" stroke-linejoin="round"/>
<path d="M5.28906 31.3333C7.01495 31.3333 8.41406 29.4679 8.41406 27.1667C8.41406 24.8655 7.01495 23 5.28906 23C3.56317 23 2.16406 24.8655 2.16406 27.1667C2.16406 29.4679 3.56317 31.3333 5.28906 31.3333Z" stroke="black" stroke-width="2.5" stroke-linecap="round" stroke-linejoin="round"/>
<path d="M5.28906 31.3333V43.8333M2.16406 43.8333H39.6641M22.9974 10.5H27.1641M22.9974 16.75H27.1641M34.4557 43.8333V39.6667" stroke="black" stroke-width="2.5" stroke-linecap="round" stroke-linejoin="round"/>
</svg>
