<svg width="310" height="34" viewBox="0 0 310 34" fill="none" xmlns="http://www.w3.org/2000/svg">
<path d="M64.8989 27.9722C60.7964 27.9722 58.6333 25.7345 56.1718 20.0656L55.3886 18.2382L47.9669 27.4501H42.1488L53.3374 13.539L52.1439 10.7418C50.3165 6.49017 49.6079 5.11024 47.5193 5.11024C46.1767 5.11024 45.2816 6.11721 45.2816 7.98198C45.2816 10.7418 46.036 12.2459 48.1782 15.7447L44.3224 18.1263C41.4879 15.3291 40.5078 11.3758 40.5078 7.94468C40.5078 3.84221 43.1931 0.821289 47.2956 0.821289C51.9202 0.821289 54.2325 2.76064 56.5821 8.50411L56.8431 9.17543L63.1833 1.34342H69.0014L58.8198 13.9865L60.4981 18.1263C62.1018 22.0796 63.4444 23.6833 64.787 23.6833C65.794 23.6833 66.2788 22.9374 66.2788 22.005C66.1006 19.8862 65.6722 18.8151 63.2215 14.8066L67.1002 12.5315C70.0093 15.8508 71.0526 19.0587 71.0526 22.3406C71.0526 25.7345 68.5166 27.9722 64.8989 27.9722Z" fill="black"/>
<path fill-rule="evenodd" clip-rule="evenodd" d="M55.4762 20.3675L55.1898 19.6992L48.3323 28.2108H40.5647L52.4617 13.4189L51.4479 11.0428C51.4477 11.0424 51.4475 11.0419 51.4473 11.0415C50.5203 8.88488 49.9242 7.57794 49.3268 6.79253C49.0422 6.41843 48.7846 6.20189 48.5261 6.07171C48.2693 5.94231 47.9574 5.87089 47.5212 5.87089C47.0561 5.87089 46.7232 6.03624 46.4899 6.32511C46.2409 6.63338 46.0432 7.16226 46.0432 7.98291C46.0432 10.5159 46.6939 11.8633 48.828 15.349L49.2231 15.9944L44.2156 19.0873L43.7906 18.668C40.7621 15.6793 39.75 11.4981 39.75 7.94562C39.75 5.72842 40.4773 3.75398 41.8099 2.32697C43.1473 0.894805 45.0502 0.0625 47.2975 0.0625C49.724 0.0625 51.6511 0.574683 53.2789 1.92512C54.7776 3.16838 55.9474 5.06234 57.0683 7.69311L62.8228 0.584634H70.5906L59.6936 14.116L61.204 17.8416C61.204 17.8417 61.204 17.8417 61.204 17.8418C61.997 19.7964 62.7017 21.1076 63.3395 21.9186C63.9811 22.7343 64.4567 22.9245 64.7889 22.9245C65.086 22.9245 65.2341 22.8244 65.3237 22.7146C65.4275 22.5872 65.5158 22.3639 65.5208 22.0355C65.4362 21.0512 65.2967 20.3416 64.9042 19.4104C64.4935 18.4361 63.8025 17.2112 62.5753 15.2038L62.1717 14.5436L67.2595 11.5594L67.6735 12.0317C70.6992 15.4841 71.8143 18.8683 71.8143 22.3416C71.8143 24.2387 71.0999 25.8562 69.8443 26.9932C68.5956 28.124 66.865 28.7329 64.9008 28.7329C62.6858 28.7329 60.9255 28.1188 59.4041 26.7016C57.9231 25.3221 56.7165 23.224 55.4769 20.3692L55.4762 20.3675ZM66.2808 22.0059C66.2808 22.9383 65.7959 23.6842 64.7889 23.6842C63.4463 23.6842 62.1037 22.0805 60.5 18.1272L58.8217 13.9874L69.0033 1.34435H63.1852L56.8451 9.17636L56.584 8.50504C56.5646 8.45757 56.5451 8.41035 56.5257 8.36339C54.196 2.72964 51.8838 0.822217 47.2975 0.822217C43.195 0.822217 40.5097 3.84314 40.5097 7.94562C40.5097 11.3768 41.4898 15.3301 44.3243 18.1272L48.18 15.7457C46.0378 12.2469 45.2835 10.7428 45.2835 7.98291C45.2835 6.11815 46.1786 5.11117 47.5212 5.11117C49.6098 5.11117 50.3184 6.4911 52.1458 10.7428L53.3393 13.5399L42.1507 27.451H47.9688L55.3905 18.2391L56.1737 20.0666C58.6352 25.7355 60.7983 27.9732 64.9008 27.9732C68.5185 27.9732 71.0546 25.7355 71.0546 22.3416C71.0546 19.0596 70.0112 15.8518 67.1021 12.5325L63.2234 14.8075C63.3613 15.033 63.4927 15.2492 63.6181 15.4568C65.7215 18.9398 66.1125 20.0063 66.2808 22.0059Z" fill="black"/>
<path d="M27.5608 27.9722C20.7731 27.9722 16.1484 23.012 16.1484 14.3968C16.1484 5.78156 20.7731 0.821289 27.5608 0.821289C34.3485 0.821289 38.9358 5.78156 38.9358 14.3968C38.9358 23.012 34.3485 27.9722 27.5608 27.9722ZM27.5608 23.907C31.8125 23.907 34.1994 20.8861 34.1994 14.3968C34.1994 7.90738 31.8125 4.92377 27.5608 4.92377C23.2718 4.92377 20.8849 7.90738 20.8849 14.3968C20.8849 20.8861 23.2718 23.907 27.5608 23.907Z" fill="black"/>
<path fill-rule="evenodd" clip-rule="evenodd" d="M18.6819 24.9132C16.5278 22.4235 15.3359 18.836 15.3359 14.3977C15.3359 9.95938 16.5278 6.37192 18.6819 3.88218C20.8458 1.38114 23.9175 0.0625 27.508 0.0625C31.0988 0.0625 34.1619 1.38143 36.3166 3.8835C38.461 6.37364 39.6428 9.96086 39.6428 14.3977C39.6428 18.8345 38.461 22.4217 36.3166 24.9119C34.1619 27.414 31.0988 28.7329 27.508 28.7329C23.9175 28.7329 20.8458 27.4143 18.6819 24.9132ZM31.8052 21.1424C32.7995 19.7618 33.3868 17.5707 33.3868 14.3977C33.3868 11.2244 32.7994 9.04389 31.8065 7.67343C30.8453 6.3469 29.4346 5.68441 27.508 5.68441C25.5605 5.68441 24.1408 6.34856 23.1761 7.67463C22.1794 9.04457 21.5919 11.2242 21.5919 14.3977C21.5919 17.5709 22.1793 19.7611 23.1773 21.1412C24.1436 22.4772 25.5637 23.1483 27.508 23.1483C29.4314 23.1483 30.8426 22.4789 31.8052 21.1424ZM16.0957 14.3977C16.0957 23.0129 20.7203 27.9732 27.508 27.9732C34.2957 27.9732 38.8831 23.0129 38.8831 14.3977C38.8831 5.78249 34.2957 0.822217 27.508 0.822217C20.7203 0.822217 16.0957 5.78249 16.0957 14.3977ZM34.1466 14.3977C34.1466 20.8871 31.7597 23.908 27.508 23.908C23.219 23.908 20.8322 20.8871 20.8322 14.3977C20.8322 7.90832 23.219 4.9247 27.508 4.9247C31.7597 4.9247 34.1466 7.90832 34.1466 14.3977Z" fill="black"/>
<path d="M8.17176 27.4501V7.8328L0.75 11.6742V7.16148L12.6472 0.821289H12.8337V27.4501H8.17176Z" fill="black"/>
<path fill-rule="evenodd" clip-rule="evenodd" d="M7.42176 28.2108V9.08239L0 12.9238V6.70641L12.4671 0.0625H13.6031V28.2108H7.42176ZM8.18147 7.83373V27.451H12.8434V0.822216H12.6569L0.759716 7.16241V11.6751L8.18147 7.83373Z" fill="black"/>
<path d="M294.6 33.9369C292.756 33.9369 291.346 33.6477 289.357 33.033V28.3328C291.165 29.092 292.467 29.4174 293.985 29.4174C295.54 29.4174 296.444 28.6943 296.878 27.1396L297.203 26.1272L287.875 7.39844H293.66L299.698 20.5231L304.326 7.39844H310.002L302.59 26.1272C300.493 31.4783 299.228 33.9369 294.6 33.9369Z" fill="black"/>
<path d="M278.753 26.7093C273.257 26.7093 270.799 24.2868 270.799 18.8273V12.1384H267.906V8.37818L268.159 8.34202C271.052 7.98046 273.185 6.24497 273.908 3.71405L273.944 3.4248H276.367V7.40196H284.14V12.1384H276.367V17.851C276.367 20.6712 277.379 21.7559 280.019 21.7559C281.284 21.7559 282.803 21.539 284.466 21.0328V25.8415C282.549 26.42 280.669 26.7093 278.753 26.7093Z" fill="black"/>
<path d="M258.333 26.2033V7.40217H263.901V26.2033H258.333ZM261.117 5.59437C259.129 5.59437 257.719 4.47353 257.719 2.81036C257.719 1.18334 259.129 0.0625 261.117 0.0625C263.106 0.0625 264.552 1.18334 264.552 2.81036C264.552 4.47353 263.106 5.59437 261.117 5.59437Z" fill="black"/>
<path d="M234.078 26.2067V7.4056H239.646L239.031 13.1182H239.104C240.152 9.10493 242.936 6.89941 246.877 6.89941C251.65 6.89941 254.398 10.045 254.398 15.4322V26.2067H248.83V16.4446C248.83 13.4075 247.167 11.5997 244.383 11.5997C241.526 11.5997 239.646 13.5521 239.646 16.5531V26.2067H234.078Z" fill="black"/>
<path d="M217.806 26.7057C213.069 26.7057 210.43 23.8494 210.43 18.426V7.39844H215.998V17.4136C215.998 20.4869 217.516 22.0416 220.3 22.0416C223.301 22.0416 225.181 20.0892 225.181 17.0521V7.39844H230.749V26.1996H225.181L225.796 20.5231H225.724C224.675 24.5002 221.891 26.7057 217.806 26.7057Z" fill="black"/>
<path d="M177.986 26.3837C174.943 26.3837 173.367 24.486 173.367 21.3709C173.367 18.4348 174.799 15.0332 176.948 12.2404C176.267 10.7723 175.444 9.16105 174.477 7.40656H178.953L179.848 9.30427C181.71 7.83623 183.751 6.90527 185.792 6.90527C188.8 6.90527 191.557 8.98202 191.27 14.89C192.667 9.59072 195.889 6.94108 199.255 6.97688C206.774 7.0485 205.975 17.7975 205.975 25.9182H201.353C201.353 17.6348 202.012 10.9267 198.431 10.9267C195.424 10.9267 193.066 17.0381 192.559 25.9182H188.227V19.2583C188.227 13.0997 187.761 10.8551 185.147 10.8551C183.894 10.8551 182.498 11.2378 181.209 12.4194C182.534 15.6777 183.25 18.5064 183.25 20.8338C183.25 24.4144 181.316 26.3837 177.986 26.3837ZM177.163 21.2993C177.163 22.266 177.521 22.7673 178.273 22.7673C179.025 22.7673 179.454 22.1586 179.454 20.7622C179.454 19.4732 179.132 17.8977 178.523 16.0716C177.7 17.7187 177.163 19.5448 177.163 21.2993Z" fill="#171717"/>
<path d="M136.227 26.2067V7.4056H141.795L141.18 13.1182H141.252C142.265 9.14109 145.157 6.89941 148.7 6.89941C152.388 6.89941 154.775 9.10493 155.245 13.1182H155.317C156.365 9.10493 159.222 6.89941 162.801 6.89941C167.248 6.89941 169.996 10.0088 169.996 15.3961V26.2067H164.428V16.4446C164.428 13.3352 162.837 11.5997 160.306 11.5997C157.884 11.5997 155.895 13.5521 155.895 16.5531V26.2067H150.327V16.4446C150.327 13.3352 148.773 11.5997 146.206 11.5997C143.783 11.5997 141.795 13.5521 141.795 16.5531V26.2067H136.227Z" fill="black"/>
<path d="M121.724 26.7129C115.144 26.7129 110.516 22.6634 110.516 16.8423C110.516 10.985 115.144 6.89941 121.724 6.89941C128.268 6.89941 132.896 10.985 132.896 16.8423C132.896 22.6634 128.268 26.7129 121.724 26.7129ZM121.724 22.0488C125.123 22.0488 127.256 19.8794 127.256 16.8062C127.256 13.7329 125.123 11.5997 121.724 11.5997C118.325 11.5997 116.192 13.7329 116.192 16.8062C116.192 19.8794 118.325 22.0488 121.724 22.0488Z" fill="black"/>
<path d="M100.219 26.7122C92.0477 26.7122 86.2266 21.4696 86.2266 13.5514C86.2266 5.63324 92.0477 0.390625 100.183 0.390625C102.461 0.390625 105.208 0.752184 108.065 1.51146V6.93486C105.425 6.06711 102.533 5.59709 100.364 5.59709C95.4825 5.59709 92.3369 8.3811 92.3369 13.5514C92.3369 18.6856 95.4825 21.5057 100.364 21.5057C102.605 21.5057 105.534 21.0718 108.318 20.2041V25.6275C105.678 26.3506 102.605 26.7122 100.219 26.7122Z" fill="black"/>
</svg>
