<svg width="140" height="27" viewBox="0 0 140 27" fill="none" xmlns="http://www.w3.org/2000/svg">
<path fill-rule="evenodd" clip-rule="evenodd" d="M107.297 20.115H103.688V26.1265H96.4733V0.883115C97.436 0.862711 103.118 0.883115 106.094 0.883115C113.787 0.883115 118.118 3.6419 118.118 10.4985C118.118 16.742 114.271 20.115 107.297 20.115ZM104.892 5.69311C104.507 5.69311 104.125 5.66665 103.688 5.69311V15.3119H104.892C108.788 15.3119 110.903 13.6765 110.903 10.5019C110.903 7.43069 109.364 5.69311 104.892 5.69311ZM83.2461 0.874023H90.4612V26.1265H83.2461V0.874023ZM66.411 26.1265V0.874023H73.6259V21.3165H80.841L79.639 26.1265H66.411ZM53.1835 0.874023H60.3986V26.1265H53.1835V0.874023ZM39.9548 15.3028H32.7398V26.1265H25.5261V0.874023H32.7398V10.4928H39.9548V0.874023H47.171V26.1265H39.9548V15.3028ZM11.0966 20.115H7.48768V26.1265H0.273438V0.883115C1.23556 0.862711 6.91768 0.883115 9.89283 0.883115C17.5881 0.883115 21.9185 3.6419 21.9185 10.4985C21.9185 16.742 18.0727 20.115 11.0966 20.115ZM131.003 0.874023C134.253 0.874023 136.757 1.47524 138.561 2.07655V6.88655C136.778 6.17645 134.253 5.64029 131.842 5.64029C129.64 5.64029 127.739 5.68402 127.739 7.48776C127.739 9.73766 130.369 10.4218 133.17 11.343L133.751 11.5376C136.757 12.5663 139.763 14.0082 139.763 18.0647C139.763 24.1498 135.093 26.1265 128.697 26.1265C126.179 26.1265 122.83 25.7358 120.524 24.924V20.114C122.83 21.2296 125.824 21.3165 128.34 21.3165C131.171 21.3165 132.575 20.4471 132.575 18.9259C132.575 14.9706 120.623 16.6946 120.623 8.17564C120.623 3.2317 124.817 0.874023 131.003 0.874023ZM7.48727 5.69311C7.92495 5.66665 8.30616 5.69311 8.69101 5.69311C13.1522 5.69311 14.7023 7.43069 14.7023 10.5019C14.7023 13.6765 12.5883 15.3119 8.69101 15.3119H7.48727V5.69311Z" fill="#231F20"/>
</svg>
